<?xml version="1.0" encoding="utf-8"?>
<!-- Generator: Adobe Illustrator 17.1.0, SVG Export Plug-In . SVG Version: 6.00 Build 0)  -->
<!DOCTYPE svg PUBLIC "-//W3C//DTD SVG 1.1//EN" "http://www.w3.org/Graphics/SVG/1.1/DTD/svg11.dtd">
<svg version="1.1" id="Ebene_1" xmlns="http://www.w3.org/2000/svg" xmlns:xlink="http://www.w3.org/1999/xlink" x="0px" y="0px" width="50px" height="50px"
	 viewBox="0 0 50 50" enable-background="new 0 0 50 50" xml:space="preserve">
<circle fill="#78BAE7" cx="25" cy="25" r="25"/>
<path fill="#FFFFFF" d="M41.245,25.183c1.26,0,2.281,1.021,2.281,2.282c0,1.259-1.021,2.28-2.281,2.28
	c-1.259,0-2.281-1.021-2.281-2.28C38.965,26.204,39.986,25.183,41.245,25.183z M35.07,23.256c0.642-0.203,1.326,0.142,1.549,0.771
	l1.111,3.14c0.001,0.003,0.003,0.004,0.005,0.006c0.677,1.05,1.068,2.181,0.375,3.297c-0.617,0.801-1.844,1.347-3.258,1.347
	c-1.551,0-2.926-0.598-3.492-1.501c-0.46-0.475-0.887-0.975-1.301-1.489c-0.632-0.094-1.262-0.2-1.888-0.335
	c-0.675-0.145-1.103-0.808-0.958-1.483c0.129-0.599,0.667-1.002,1.258-0.985c0.834,0.026,1.663,0.094,2.49,0.182
	c0.351,0.037,0.656,0.219,0.867,0.469l0.031,0.056c0.123,0.146,0.244,0.332,0.366,0.48c0.039-0.032,0.074,0.011,0.115-0.021
	c0.752-0.563,1.686-0.108,2.514-0.108c0.009,0,0.019,0,0.028,0l-0.62-2.109C34.052,24.319,34.415,23.465,35.07,23.256z M27.56,4.802
	c2.091,0,3.786,1.695,3.786,3.785c0,2.091-1.695,3.786-3.786,3.786s-3.785-1.695-3.785-3.786C23.775,6.497,25.469,4.802,27.56,4.802
	z M25.138,20.986l-0.054-0.098c-0.316-0.577-0.625-1.154-0.919-1.741c-0.065-0.127-0.128-0.247-0.192-0.374
	c-1.337,2.144-3.62,4.472-3.62,4.472l0.8,7.232l-3.844,0.129l0.058,11.368c0.005,0.965-0.792,1.956-1.738,1.956c0,0-0.006,0-0.01,0
	c-0.961,0-1.742-0.977-1.747-1.938l-0.058-11.415l-3.29,0.068c0,0,0.145-7.426,2.111-10.046c1.398-1.864,5.39-5.475,7.581-7.406
	c0,0,2.134-2.414,3.161-1.749c0.27,0.08,1.416,1.175,1.515,1.647c0.533,0.927,0.962,1.903,1.41,2.87
	c0.273,0.598,0.535,1.2,0.796,1.803c0.206,0.47,0.402,0.945,0.594,1.422l5.023,3.015c0.724,0.434,0.958,1.373,0.524,2.097
	c-0.435,0.723-1.374,0.958-2.098,0.524l-5.46-3.275C25.445,21.405,25.262,21.21,25.138,20.986z M41.691,34.692h-14.18
	c-0.686,0-1.243-0.484-1.243-1.087c0-0.603,0.557-1.087,1.243-1.087h14.18c0.687,0,1.243,0.484,1.243,1.087
	C42.935,34.208,42.378,34.692,41.691,34.692z"/>
</svg>
